<?xml version="1.0" encoding="UTF-8" standalone="no"?>
<svg width="1000" height="520" xmlns="http://www.w3.org/2000/svg" version="1.1">
  <style>
    .title { font: bold 18px sans-serif; fill: #1f2937; }
    .label { font: 14px sans-serif; fill: #111827; }
    .box { fill: #ffffff; stroke: #334155; stroke-width:1.5; rx:8; }
    .cloud { fill: #eef2ff; stroke: #6366f1; stroke-width:1.5; rx:12; }
    .connector { stroke: #0f172a; stroke-width:1.2; marker-end: url(#arrow); }
  </style>

  <defs>
    <marker id="arrow" markerWidth="10" markerHeight="10" refX="8" refY="5" orient="auto">
      <path d="M0,0 L10,5 L0,10 z" fill="#0f172a" />
    </marker>
  </defs>

  <!-- Title -->
  <text x="20" y="30" class="title">MedixInfo – High-level Architecture</text>

  <!-- Users -->
  <rect x="30" y="60" width="160" height="40" class="cloud" />
  <text x="50" y="86" class="label">Users / Clients (Browser / Mobile)</text>

  <!-- Route53 / Domain -->
  <rect x="220" y="60" width="160" height="40" class="box" />
  <text x="250" y="86" class="label">Route 53<br/>medixinfo.org</text>

  <!-- ALB -->
  <rect x="420" y="60" width="160" height="40" class="box" />
  <text x="445" y="86" class="label">Application Load Balancer (ALB)</text>

  <!-- Kubernetes cluster -->
  <rect x="80" y="150" width="360" height="190" class="cloud" />
  <text x="90" y="175" class="label">Kubernetes Cluster (Frontend)</text>

  <!-- Frontend Pods box -->
  <rect x="110" y="200" width="140" height="110" class="box" />
  <text x="140" y="230" class="label">Next.js Frontend Pods</text>
  <text x="140" y="250" class="label">HPA (Horizontal Pod Autoscaler)</text>
  <text x="140" y="270" class="label">Images in Amazon ECR</text>

  <!-- ECR -->
  <rect x="500" y="220" width="160" height="60" class="box" />
  <text x="520" y="245" class="label">Amazon ECR</text>
  <text x="520" y="265" class="label">Docker Registry</text>

  <!-- EC2 ASG -->
  <rect x="500" y="340" width="160" height="80" class="box" />
  <text x="515" y="365" class="label">EC2 Auto Scaling Group</text>
  <text x="515" y="385" class="label">FastAPI Backend</text>

  <!-- Connectors -->
  <line x1="190" y1="80" x2="220" y2="80" class="connector" />
  <line x1="380" y1="80" x2="420" y2="80" class="connector" />
  <line x1="500" y1="100" x2="500" y2="220" class="connector" />
  <line x1="580" y1="140" x2="580" y2="220" class="connector" />
  <line x1="420" y1="100" x2="270" y2="150" class="connector" />
  <line x1="350" y1="260" x2="500" y2="260" class="connector" />
  <line x1="500" y1="300" x2="500" y2="340" class="connector" />

  <!-- Labels near connectors -->
  <text x="360" y="115" class="label">HTTPS / TLS</text>
  <text x="420" y="240" class="label">Ingress / Service</text>

  <!-- Footer note -->
  <text x="20" y="500" class="label">Live site: https://medixinfo.org</text>
</svg>
